<svg width="279" height="131" viewBox="0 0 279 131" fill="none" xmlns="http://www.w3.org/2000/svg">
<path d="M3.015 28.14H13.275C15.345 28.14 17.145 28.455 18.675 29.085C20.235 29.715 21.45 30.525 22.32 31.515C23.22 32.475 23.94 33.69 24.48 35.16C25.38 37.62 25.83 40.62 25.83 44.16C25.83 49.68 24.48 53.88 21.78 56.76C19.74 58.92 16.935 60 13.365 60H3.015V28.14ZM10.395 33.72V54.42H13.23C15.12 54.42 16.38 53.55 17.01 51.81C17.64 50.04 17.955 47.385 17.955 43.845C17.955 40.305 17.58 37.74 16.83 36.15C16.11 34.53 14.79 33.72 12.87 33.72H10.395ZM30.2611 28.14H49.7011L48.8911 33.765H37.6411V41.01H47.8111L47.0461 46.5H37.6411V54.42H49.9261L49.1161 60H30.2611V28.14ZM53.7718 28.14H73.2118L72.4018 33.765H61.1518V41.01H71.3218L70.5568 46.5H61.1518V54.42H73.4368L72.6268 60H53.7718V28.14ZM77.2826 28.14H88.8026C92.9126 28.14 95.7476 29.115 97.3076 31.065C98.6576 32.805 99.3326 35.025 99.3326 37.725C99.3326 40.515 98.5076 42.96 96.8576 45.06C95.9876 46.2 94.6676 47.115 92.8976 47.805C91.1576 48.465 89.0576 48.795 86.5976 48.795H84.6626V60H77.2826V28.14ZM84.6626 33.18V43.485H87.0926C88.6226 43.485 89.7176 43.08 90.3776 42.27C91.0676 41.46 91.4126 40.185 91.4126 38.445C91.4126 36.675 91.1276 35.355 90.5576 34.485C89.9876 33.615 88.8326 33.18 87.0926 33.18H84.6626Z" fill="#13293D"/>
<path d="M41.3368 71.6C47.4568 71.6 50.8018 74.435 51.3718 80.105L44.5318 81.185C44.0818 78.425 42.7618 77.045 40.5718 77.045C39.6718 77.045 38.9518 77.3 38.4118 77.81C37.9018 78.32 37.6468 78.935 37.6468 79.655C37.6468 80.345 37.7518 80.93 37.9618 81.41C38.2018 81.89 38.6218 82.37 39.2218 82.85C39.8518 83.33 40.3468 83.69 40.7068 83.93C41.0668 84.14 41.7568 84.515 42.7768 85.055C43.7968 85.595 44.6668 86.075 45.3868 86.495C46.1368 86.885 46.8568 87.305 47.5468 87.755C48.2368 88.205 48.9868 88.79 49.7968 89.51C51.2968 90.89 52.0468 92.81 52.0468 95.27C52.0468 97.7 50.9968 99.86 48.8968 101.75C46.7968 103.61 44.0968 104.54 40.7968 104.54C38.9968 104.54 37.1218 104.24 35.1718 103.64C33.2518 103.04 31.5268 102.215 29.9968 101.165L32.6518 96.26C35.5918 97.91 38.2618 98.735 40.6618 98.735C41.6218 98.735 42.4768 98.48 43.2268 97.97C44.0068 97.46 44.3968 96.71 44.3968 95.72C44.3968 94.64 43.8868 93.725 42.8668 92.975C41.6668 92.105 40.4068 91.37 39.0868 90.77C37.9168 90.29 36.7468 89.69 35.5768 88.97C34.4368 88.25 33.6418 87.68 33.1918 87.26C32.7718 86.81 32.3218 86.27 31.8418 85.64C30.9118 84.38 30.4468 82.805 30.4468 80.915C30.4468 78.215 31.4818 75.995 33.5518 74.255C35.6518 72.485 38.2468 71.6 41.3368 71.6ZM55.9281 72.14H75.3681L74.5581 77.765H63.3081V85.01H73.4781L72.7131 90.5H63.3081V98.42H75.5931L74.7831 104H55.9281V72.14ZM93.2088 71.915L101.804 104H94.3788L92.5788 96.215H85.6938L83.8488 104H76.5588L84.9738 72.68L93.2088 71.915ZM89.0238 80.015L86.6838 90.86H91.6338L89.5638 80.015H89.0238Z" fill="#13293D"/>
<path d="M162.804 27.536V104H146.064L129.54 69.764L125.112 57.884L124.356 58.1L126.948 71.492V104H109.236V27.536H126.192L142.068 61.556L147.036 74.84L147.684 74.516L145.2 60.584V27.536H162.804ZM177.369 27.536H222.405L220.569 40.928H195.081V58.856H217.437L215.601 72.032H195.081V104H177.369V27.536ZM260.541 40.82V104H242.829V40.82H224.577L226.305 27.536H277.821L276.093 40.82H260.541Z" fill="#13293D"/>
<path d="M16.04 5.14L13.44 19H9.54L8.1 10.84H7.94L7.98 12.12L6.68 19H3L0.18 5.14L3.42 4.76L5.08 13.96L5.06 15.64H5.18L6.7 5.94L9.9 5.64L11.42 14.28L11.4 15.64H11.52L13.16 4.74L16.04 5.14ZM17.4338 4.84H26.0738L25.7138 7.34H20.7138V10.56H25.2338L24.8938 13H20.7138V16.52H26.1738L25.8138 19H17.4338V4.84ZM31.163 4.84V16.52H35.943L35.583 19H27.883V4.84H31.163ZM37.1947 8.3C37.568 7.23333 38.188 6.35333 39.0547 5.66C39.9347 4.95333 41.0947 4.6 42.5347 4.6C43.9747 4.6 45.0214 4.97333 45.6747 5.72C46.328 6.45333 46.6547 7.67333 46.6547 9.38L43.3947 9.54C43.3947 8.56667 43.2947 7.92667 43.0947 7.62C42.8947 7.31333 42.5547 7.16 42.0747 7.16C41.328 7.16 40.8214 7.56 40.5547 8.36C40.3014 9.16 40.1747 10.3733 40.1747 12C40.1747 13.6267 40.4147 14.8133 40.8947 15.56C41.3747 16.2933 42.168 16.66 43.2747 16.66C43.9547 16.66 44.9147 16.46 46.1547 16.06L46.8147 18.14C45.3747 18.8733 43.888 19.24 42.3547 19.24C38.5547 19.24 36.6547 16.8133 36.6547 11.96C36.6547 10.5867 36.8347 9.36667 37.1947 8.3ZM53.328 7.16C52.5813 7.16 52.088 7.52667 51.848 8.26C51.608 8.98 51.488 10.2133 51.488 11.96C51.488 13.6933 51.6213 14.9133 51.888 15.62C52.1546 16.3267 52.708 16.68 53.548 16.68C54.4013 16.68 54.948 16.32 55.188 15.6C55.428 14.88 55.548 13.6 55.548 11.76C55.548 9.73333 55.3613 8.45333 54.988 7.92C54.628 7.41333 54.0746 7.16 53.328 7.16ZM53.708 4.6C57.2813 4.6 59.068 6.95333 59.068 11.66C59.068 14.06 58.588 15.9267 57.628 17.26C56.668 18.58 55.2346 19.24 53.328 19.24C49.7546 19.24 47.968 16.8933 47.968 12.2C47.968 9.8 48.448 7.93333 49.408 6.6C50.368 5.26667 51.8013 4.6 53.708 4.6ZM73.2233 4.84L74.2033 19H71.2233L70.8033 11.42L71.0433 9.38H70.8633L68.7433 18.14L65.7633 18.32L63.5433 9.4H63.3633L63.6033 11.38L63.2833 19H60.6633L61.4233 4.84H65.1433L67.1433 13.04L67.4433 15.02H67.5633L67.7833 13.06L69.5833 4.84H73.2233ZM76.2228 4.84H84.8628L84.5028 7.34H79.5028V10.56H84.0228L83.6828 13H79.5028V16.52H84.9628L84.6028 19H76.2228V4.84ZM96.2736 7.3V19H92.9936V7.3H89.6136L89.9336 4.84H99.4736L99.1536 7.3H96.2736ZM105.828 7.16C105.081 7.16 104.588 7.52667 104.348 8.26C104.108 8.98 103.988 10.2133 103.988 11.96C103.988 13.6933 104.121 14.9133 104.388 15.62C104.655 16.3267 105.208 16.68 106.048 16.68C106.901 16.68 107.448 16.32 107.688 15.6C107.928 14.88 108.048 13.6 108.048 11.76C108.048 9.73333 107.861 8.45333 107.488 7.92C107.128 7.41333 106.575 7.16 105.828 7.16ZM106.208 4.6C109.781 4.6 111.568 6.95333 111.568 11.66C111.568 14.06 111.088 15.9267 110.128 17.26C109.168 18.58 107.735 19.24 105.828 19.24C102.255 19.24 100.468 16.8933 100.468 12.2C100.468 9.8 100.948 7.93333 101.908 6.6C102.868 5.26667 104.301 4.6 106.208 4.6ZM123.305 7.3V19H120.025V7.3H116.645L116.965 4.84H126.505L126.185 7.3H123.305ZM134.639 19V13.08H131.319V19H128.039V4.84H131.319V10.48H134.639V4.84H137.899V19H134.639ZM140.598 4.84H149.238L148.878 7.34H143.878V10.56H148.398L148.058 13H143.878V16.52H149.338L148.978 19H140.598V4.84Z" fill="#3E92CC"/>
<path d="M27.7461 115.912L25.6661 127H22.5461L21.3941 120.472H21.2661L21.2981 121.496L20.2581 127H17.3141L15.0581 115.912L17.6501 115.608L18.9781 122.968L18.9621 124.312H19.0581L20.2741 116.552L22.8341 116.312L24.0501 123.224L24.0341 124.312H24.1301L25.4421 115.592L27.7461 115.912ZM34.1411 127V122.264H31.4851V127H28.8611V115.672H31.4851V120.184H34.1411V115.672H36.7491V127H34.1411ZM38.9079 115.672H45.8199L45.5319 117.672H41.5319V120.248H45.1479L44.8759 122.2H41.5319V125.016H45.8999L45.6119 127H38.9079V115.672ZM47.2673 115.672H51.5073C53.7366 115.672 54.8513 116.744 54.8513 118.888C54.8513 120.445 54.158 121.528 52.7713 122.136L55.2353 127H52.4193L50.5633 122.76H49.8433V127H47.2673V115.672ZM49.8753 117.592V120.808H50.6273C51.5766 120.808 52.0513 120.237 52.0513 119.096C52.0513 118.605 51.9393 118.232 51.7153 117.976C51.502 117.72 51.1286 117.592 50.5953 117.592H49.8753ZM56.4861 115.672H63.3981L63.1101 117.672H59.1101V120.248H62.7261L62.4541 122.2H59.1101V125.016H63.4781L63.1901 127H56.4861V115.672ZM68.1267 115.672H75.0387L74.7507 117.672H70.7507V120.248H74.3667L74.0947 122.2H70.7507V125.016H75.1187L74.8307 127H68.1267V115.672ZM84.4541 115.928L81.3181 127H78.4541L75.3981 115.928L77.9421 115.592L79.7181 122.808L79.9581 124.696H80.0381L80.2781 122.824L82.0541 115.592L84.4541 115.928ZM85.4392 115.672H92.3512L92.0632 117.672H88.0632V120.248H91.6792L91.4072 122.2H88.0632V125.016H92.4312L92.1432 127H85.4392V115.672ZM101.735 115.672V127H99.2546L96.8066 121.928L96.1506 120.168L96.0386 120.2L96.4226 122.184V127H93.7986V115.672H96.3106L98.6626 120.712L99.3986 122.68L99.4946 122.632L99.1266 120.568V115.672H101.735ZM107.174 115.672H111.27C112.731 115.672 113.739 116.019 114.294 116.712C114.774 117.331 115.014 118.12 115.014 119.08C115.014 120.072 114.72 120.941 114.134 121.688C113.824 122.093 113.355 122.419 112.726 122.664C112.107 122.899 111.36 123.016 110.486 123.016H109.798V127H107.174V115.672ZM109.798 117.464V121.128H110.662C111.206 121.128 111.595 120.984 111.83 120.696C112.075 120.408 112.198 119.955 112.198 119.336C112.198 118.707 112.096 118.237 111.894 117.928C111.691 117.619 111.28 117.464 110.662 117.464H109.798ZM119.063 115.672V127H116.439V115.672H119.063ZM129.077 115.928L126.149 121.144L129.365 126.776L126.709 127.096L124.741 123.16L122.917 127.096L120.421 126.776L123.317 121.352L120.341 115.928L123.029 115.592L124.773 119.24L126.581 115.592L129.077 115.928ZM130.361 115.672H137.273L136.985 117.672H132.985V120.248H136.601L136.329 122.2H132.985V125.016H137.353L137.065 127H130.361V115.672ZM141.344 115.672V125.016H145.168L144.88 127H138.72V115.672H141.344ZM149.642 115.48C151.818 115.48 153.007 116.488 153.21 118.504L150.778 118.888C150.618 117.907 150.148 117.416 149.37 117.416C149.05 117.416 148.794 117.507 148.602 117.688C148.42 117.869 148.33 118.088 148.33 118.344C148.33 118.589 148.367 118.797 148.442 118.968C148.527 119.139 148.676 119.309 148.89 119.48C149.114 119.651 149.29 119.779 149.418 119.864C149.546 119.939 149.791 120.072 150.154 120.264C150.516 120.456 150.826 120.627 151.082 120.776C151.348 120.915 151.604 121.064 151.85 121.224C152.095 121.384 152.362 121.592 152.65 121.848C153.183 122.339 153.45 123.021 153.45 123.896C153.45 124.76 153.076 125.528 152.33 126.2C151.583 126.861 150.623 127.192 149.45 127.192C148.81 127.192 148.143 127.085 147.45 126.872C146.767 126.659 146.154 126.365 145.61 125.992L146.554 124.248C147.599 124.835 148.548 125.128 149.402 125.128C149.743 125.128 150.047 125.037 150.314 124.856C150.591 124.675 150.73 124.408 150.73 124.056C150.73 123.672 150.548 123.347 150.186 123.08C149.759 122.771 149.311 122.509 148.842 122.296C148.426 122.125 148.01 121.912 147.594 121.656C147.188 121.4 146.906 121.197 146.746 121.048C146.596 120.888 146.436 120.696 146.266 120.472C145.935 120.024 145.77 119.464 145.77 118.792C145.77 117.832 146.138 117.043 146.874 116.424C147.62 115.795 148.543 115.48 149.642 115.48ZM157.951 118.44C158.25 117.587 158.746 116.883 159.439 116.328C160.143 115.763 161.071 115.48 162.223 115.48C163.375 115.48 164.212 115.779 164.735 116.376C165.258 116.963 165.519 117.939 165.519 119.304L162.911 119.432C162.911 118.653 162.831 118.141 162.671 117.896C162.511 117.651 162.239 117.528 161.855 117.528C161.258 117.528 160.852 117.848 160.639 118.488C160.436 119.128 160.335 120.099 160.335 121.4C160.335 122.701 160.527 123.651 160.911 124.248C161.295 124.835 161.93 125.128 162.815 125.128C163.359 125.128 164.127 124.968 165.119 124.648L165.647 126.312C164.495 126.899 163.306 127.192 162.079 127.192C159.039 127.192 157.519 125.251 157.519 121.368C157.519 120.269 157.663 119.293 157.951 118.44ZM171.898 115.592L174.954 127H172.314L171.674 124.232H169.226L168.57 127H165.978L168.97 115.864L171.898 115.592ZM170.41 118.472L169.578 122.328H171.338L170.602 118.472H170.41ZM184.031 115.672V127H181.551L179.103 121.928L178.447 120.168L178.335 120.2L178.719 122.184V127H176.095V115.672H178.607L180.959 120.712L181.695 122.68L181.791 122.632L181.423 120.568V115.672H184.031ZM189.47 115.672H193.118C193.854 115.672 194.494 115.784 195.038 116.008C195.593 116.232 196.025 116.52 196.334 116.872C196.654 117.213 196.91 117.645 197.102 118.168C197.422 119.043 197.582 120.109 197.582 121.368C197.582 123.331 197.102 124.824 196.142 125.848C195.417 126.616 194.42 127 193.15 127H189.47V115.672ZM192.094 117.656V125.016H193.102C193.774 125.016 194.222 124.707 194.446 124.088C194.67 123.459 194.782 122.515 194.782 121.256C194.782 119.997 194.649 119.085 194.382 118.52C194.126 117.944 193.657 117.656 192.974 117.656H192.094ZM201.782 115.672V127H199.158V115.672H201.782ZM211.892 115.928L208.756 127H205.892L202.836 115.928L205.38 115.592L207.156 122.808L207.396 124.696H207.476L207.716 122.824L209.492 115.592L211.892 115.928ZM212.877 115.672H219.789L219.501 117.672H215.501V120.248H219.117L218.845 122.2H215.501V125.016H219.869L219.581 127H212.877V115.672ZM224.517 115.672H228.165C228.901 115.672 229.541 115.784 230.085 116.008C230.64 116.232 231.072 116.52 231.381 116.872C231.701 117.213 231.957 117.645 232.149 118.168C232.469 119.043 232.629 120.109 232.629 121.368C232.629 123.331 232.149 124.824 231.189 125.848C230.464 126.616 229.467 127 228.197 127H224.517V115.672ZM227.141 117.656V125.016H228.149C228.821 125.016 229.269 124.707 229.493 124.088C229.717 123.459 229.829 122.515 229.829 121.256C229.829 119.997 229.696 119.085 229.429 118.52C229.173 117.944 228.704 117.656 228.021 117.656H227.141ZM234.205 115.672H241.117L240.829 117.672H236.829V120.248H240.445L240.173 122.2H236.829V125.016H241.197L240.909 127H234.205V115.672ZM242.564 115.672H249.476L249.188 117.672H245.188V120.248H248.804L248.532 122.2H245.188V125.016H249.556L249.268 127H242.564V115.672ZM250.924 115.672H255.02C256.481 115.672 257.489 116.019 258.044 116.712C258.524 117.331 258.764 118.12 258.764 119.08C258.764 120.072 258.47 120.941 257.884 121.688C257.574 122.093 257.105 122.419 256.476 122.664C255.857 122.899 255.11 123.016 254.236 123.016H253.548V127H250.924V115.672ZM253.548 117.464V121.128H254.412C254.956 121.128 255.345 120.984 255.58 120.696C255.825 120.408 255.948 119.955 255.948 119.336C255.948 118.707 255.846 118.237 255.644 117.928C255.441 117.619 255.03 117.464 254.412 117.464H253.548ZM263.069 115.624L262.717 123.416L260.557 123.576L260.189 115.784L263.069 115.624ZM261.709 124.296C262.637 124.296 263.101 124.803 263.101 125.816C263.101 126.211 262.973 126.541 262.717 126.808C262.472 127.075 262.088 127.208 261.565 127.208C260.648 127.208 260.189 126.701 260.189 125.688C260.189 125.293 260.312 124.963 260.557 124.696C260.803 124.429 261.187 124.296 261.709 124.296Z" fill="#3E92CC"/>
</svg>
